<svg xmlns="http://www.w3.org/2000/svg" width="221" height="195" viewBox="0 0 221 195" fill="none">
<g filter="url(#filter0_d_101_86)">
<path fill-rule="evenodd" clip-rule="evenodd" d="M79.1574 5.9254C86.2571 7.44243 92.6286 9.86969 101.731 14.4208L110.408 18.7898L119.086 14.4208C132.193 7.80652 141.538 5.01518 150.761 5.01518C165.021 5.01518 174.67 12.9037 176.733 26.375C178.068 34.8704 175.155 47.7955 169.208 59.9317C167.57 63.2085 166.235 66.1212 166.235 66.3639C166.235 66.6066 168.419 69.398 171.089 72.6141C186.806 91.668 198.153 112.057 201.673 127.591C202.886 132.931 203.068 141.973 202.037 145.796C198.881 157.446 189.719 164 176.611 164C160.956 163.939 141.113 154.959 117.569 137.24L110.287 131.778L106.949 134.388C89.6552 147.98 72.3004 157.811 58.4044 161.937C50.6372 164.243 41.0495 164.607 35.4062 162.908C28.4278 160.784 23.8161 157.022 20.7213 150.954C16.7164 143.004 17.1411 131.171 21.9349 118.186C26.9108 104.654 39.1684 84.6896 51.0013 70.9757C53.0037 68.6698 54.5814 66.6673 54.5814 66.3639C54.5814 66.1212 53.3071 63.3905 51.7901 60.2958C41.7777 39.7855 41.2316 22.5521 50.2731 12.7824C56.4019 6.04678 67.4459 3.43747 79.1574 5.9254ZM65.6854 26.9817C66.0495 26.6783 66.9597 26.2535 67.6272 26.0714C69.6904 25.586 70.2972 25.6467 75.0303 26.6176C79.4601 27.5278 81.8873 28.3167 88.1375 31.0473L91.1109 32.3216L87.5307 35.1736C85.5889 36.7513 80.9164 40.7563 77.1542 44.0331C73.3919 47.3706 70.2365 49.9799 70.1152 49.8585C69.4477 49.191 66.717 41.8486 65.8675 38.6325C64.7145 34.0814 64.5932 27.8919 65.6854 26.9817ZM145.603 26.557C141.476 27.4672 138.321 28.5595 132.981 30.9261L129.765 32.3217L134.498 36.2053C137.107 38.3292 141.719 42.2734 144.693 44.9434C147.727 47.6741 150.336 49.9193 150.518 49.9193C151.125 49.9193 153.855 42.8802 154.948 38.5719C156.161 34.0208 156.222 27.892 155.13 26.9818C153.795 25.8288 149.668 25.6468 145.603 26.557ZM105.797 47.6134C76.4875 69.6406 49.3023 103.076 41.171 127.045C38.9865 133.356 38.3797 140.759 39.8967 142.276C41.2924 143.672 48.2101 143.065 54.5816 141.002C61.1352 138.878 71.2082 133.841 76.0021 130.383C79.5822 127.773 82.5556 123.829 83.7086 120.067C84.1333 118.671 84.3761 115.819 84.194 113.028C83.8299 107.202 83.0411 105.625 74.303 94.8234L67.7494 86.6921L70.116 84.6289C73.5141 81.6555 78.3686 79.5317 82.7377 79.2283C87.5315 78.8035 88.5631 79.3496 93.4176 85.0537C99.243 91.85 103.612 94.2165 110.408 94.2165C117.205 94.2165 121.574 91.85 127.399 85.0537C132.254 79.3496 133.285 78.8035 138.079 79.2283C142.448 79.5317 147.302 81.6555 150.701 84.6289L153.067 86.6921L146.514 94.8234C137.776 105.625 136.987 107.202 136.623 113.028C136.016 123.829 140.628 129.29 157.133 137.361C165.568 141.487 174.488 143.793 178.735 143.004C181.466 142.519 182.255 140.698 181.769 135.905C180.07 119.339 160.592 89.1193 136.926 66.5459C127.46 57.4437 111.804 44.4579 110.408 44.4579C110.166 44.4579 108.102 45.8536 105.797 47.6134Z" fill="white"/>
</g>
<rect x="99.9229" y="63" width="21" height="21" rx="10.5" fill="#FA8626"/>
<defs>
<filter id="filter0_d_101_86" x="0.6" y="0.6" width="219.509" height="193.8" filterUnits="userSpaceOnUse" color-interpolation-filters="sRGB">
<feFlood flood-opacity="0" result="BackgroundImageFix"/>
<feColorMatrix in="SourceAlpha" type="matrix" values="0 0 0 0 0 0 0 0 0 0 0 0 0 0 0 0 0 0 127 0" result="hardAlpha"/>
<feOffset dy="13"/>
<feGaussianBlur stdDeviation="8.7"/>
<feComposite in2="hardAlpha" operator="out"/>
<feColorMatrix type="matrix" values="0 0 0 0 0 0 0 0 0 0 0 0 0 0 0 0 0 0 0.1 0"/>
<feBlend mode="normal" in2="BackgroundImageFix" result="effect1_dropShadow_101_86"/>
<feBlend mode="normal" in="SourceGraphic" in2="effect1_dropShadow_101_86" result="shape"/>
</filter>
</defs>
</svg>
